#!OML:ASF H:\Terrain\Walking\May29\JustinRory\Justin.ASF
:FULLY-SPECIFIED
:DEGREES
326
root 12.977 18.1048 22.6278 168.646 -72.3047 -155.637
lowerback 22.1716 -10.3065 -2.5396
upperback 4.02872 -14.7009 -4.14818
thorax -8.16419 -7.12228 1.12464
lowerneck -17.4313 15.4282 -3.5632
upperneck 18.0355 22.4332 -3.17623
head 8.43488 9.84068 2.16017
rclavicle -2.38542e-014 2.22639e-014
rhumerus 8.25269 -28.9256 -86.0952
rradius 57.1893
rwrist -73.7614
rhand -13.8259 369.923
rfingers 7.12502
rthumb 12.297 -19.695
lclavicle -2.38542e-014 2.22639e-014
lhumerus 69.9723 -64.2715 64.0922
lradius 24.7509
lwrist -5.28141
lhand 10.6015 64.8188
lfingers 7.12502
lthumb 35.6966 -91.2093
rfemur -22.9853 7.37912 16.3546
rtibia 34.124
rfoot -15.2784 9.20878
rtoes -23.8235
lfemur -44.3704 19.0108 -15.6692
ltibia 39.9515
lfoot 9.13097 -22.7411
ltoes 0.273437
327
root 13.0371 18.1191 22.655 168.013 -73.8546 -154.695
lowerback 22.0118 -10.4134 -2.80501
upperback 4.26458 -14.885 -4.18796
thorax -7.76353 -7.22698 1.20735
lowerneck -17.6986 15.1904 -3.73309
upperneck 17.8792 22.1591 -3.14058
head 8.40558 9.7146 2.17334
rclavicle 3.18055e-015 2.54444e-014
rhumerus 6.40087 -28.9127 -85.3739
rradius 58.6653
rwrist -75.0042
rhand -14.4944 370.938
rfingers 7.12502
rthumb 11.6524 -18.7176
lclavicle 3.18055e-015 2.54444e-014
lhumerus 72.3271 -64.9038 61.4356
lradius 25.0694
lwrist -5.02079
lhand 10.884 64.8043
lfingers 7.12502
lthumb 35.9643 -91.1296
rfemur -23.5257 7.38355 16.8263
rtibia 36.2193
rfoot -15.4201 8.3593
rtoes -24.5836
lfemur -44.7411 19.1052 -16.2817
ltibia 39.1281
lfoot 8.53337 -22.429
ltoes -5.79877
328
root 13.0923 18.136 22.6844 168.233 -75.2845 -154.832
lowerback 21.9479 -10.4867 -3.54458
upperback 4.48839 -15.1215 -4.09779
thorax -7.2678 -7.35076 1.68176
lowerneck -18.0248 15.0945 -4.54914
upperneck 17.732 22.1865 -2.84745
head 8.2838 9.71811 2.37142
rclavicle -8.42847e-014 -1.20861e-013
rhumerus 5.02616 -28.6179 -84.6148
rradius 59.9271
rwrist -75.89
rhand -15.4717 371.439
rfingers 7.12502
rthumb 10.7097 -18.2676
lclavicle -8.42847e-014 -1.20861e-013
lhumerus 73.2883 -65.0311 60.4281
lradius 25.3471
lwrist -5.28958
lhand 10.9614 64.9828
lfingers 7.12502
lthumb 36.0376 -91.2901
rfemur -23.7023 7.40935 16.9321
rtibia 37.8369
rfoot -15.3082 7.82678
rtoes -24.8999
lfemur -44.8388 19.3881 -17.105
ltibia 38.6732
lfoot 5.89525 -22.336
ltoes -9.50264
329
root 13.1407 18.1382 22.7149 167.73 -76.5464 -154.204
lowerback 21.7619 -10.5587 -4.04635
upperback 4.67194 -15.2823 -3.9046
thorax -6.78146 -7.44445 2.09994
lowerneck -18.1692 15.0335 -5.3715
upperneck 17.4722 22.2573 -2.63339
head 8.10246 9.74671 2.52872
rclavicle -6.67916e-014 -2.8625e-014
rhumerus 4.03478 -28.6259 -84.1041
rradius 60.8693
rwrist -76.4689
rhand -15.8311 372.229
rfingers 7.12502
rthumb 10.363 -17.4954
lclavicle -6.67916e-014 -2.8625e-014
lhumerus 74.0434 -65.111 59.6722
lradius 25.5987
lwrist -5.60221
lhand 11.3887 65.1375
lfingers 7.12502
lthumb 36.4423 -91.3441
rfemur -23.6759 7.84999 17.1079
rtibia 38.8908
rfoot -15.1634 7.47094
rtoes -23.4016
lfemur -44.9513 19.7689 -17.5746
ltibia 38.6132
lfoot 2.40067 -21.3876
ltoes -8.94675
330
root 13.1827 18.1189 22.7535 167.338 -77.6091 -153.723
lowerback 21.5662 -10.4314 -4.29838
upperback 4.80929 -15.1541 -3.89631
thorax -6.46901 -7.39955 2.1429
lowerneck -17.9427 14.8942 -5.27479
upperneck 17.3196 22.0693 -2.91356
head 8.06337 9.64898 2.39062
rclavicle -5.88403e-014 -1.27222e-014
rhumerus 2.6087 -29.2071 -83.5298
rradius 62.0375
rwrist -76.8701
rhand -15.868 372.466
rfingers 7.12502
rthumb 10.3275 -17.2603
lclavicle -5.88403e-014 -1.27222e-014
lhumerus 75.2577 -65.7777 58.4421
lradius 25.7961
lwrist -5.68812
lhand 12.1737 64.8758
lfingers 7.12502
lthumb 37.185 -90.8922
rfemur -23.4998 8.43969 17.1478
rtibia 39.4174
rfoot -15.1153 6.88524
rtoes -20.9533
lfemur -44.9742 20.0972 -17.8564
ltibia 38.921
lfoot -1.70961 -19.6489
ltoes -12.9167
331
root 13.2226 18.0969 22.8007 168.619 -78.469 -155.099
lowerback 21.457 -10.0861 -4.8002
upperback 4.92048 -14.8214 -4.00515
thorax -6.21208 -7.25287 2.16285
lowerneck -17.9348 14.6762 -4.90224
upperneck 17.8776 21.7528 -3.05391
head 8.31416 9.45764 2.30621
rclavicle -9.85972e-014 2.8625e-014
rhumerus 0.968308 -29.8979 -82.7415
rradius 63.4169
rwrist -77.1621
rhand -16.418 372.762
rfingers 7.12502
rthumb 9.79689 -16.9899
lclavicle -9.85972e-014 2.8625e-014
lhumerus 77.273 -66.7205 56.5534
lradius 25.9457
lwrist -5.12608
lhand 11.9571 64.4985
lfingers 7.12502
lthumb 36.9802 -90.5681
rfemur -23.1738 8.8089 16.7496
rtibia 39.4533
rfoot -15.6435 5.45314
rtoes -20.3979
lfemur -44.6261 20.1371 -18.0837
ltibia 39.5469
lfoot -6.0003 -17.1494
ltoes -17.8412
332
root 13.2599 18.0708 22.8582 171.308 -79.3882 -158.04
lowerback 21.5561 -9.91926 -5.68166
upperback 4.93918 -14.7969 -3.92857
thorax -6.0047 -7.24135 2.67776
lowerneck -18.0204 14.6099 -5.17185
upperneck 18.4134 21.7798 -3.08802
head 8.4883 9.39633 2.36676
rclavicle 9.38264e-014 -2.22639e-014
rhumerus -0.447364 -29.6807 -81.8942
rradius 64.8229
rwrist -77.7407
rhand -17.1012 373.777
rfingers 7.12502
rthumb 9.13769 -16.005
lclavicle 9.38264e-014 -2.22639e-014
lhumerus 77.9517 -66.9985 55.9971
lradius 26.1313
lwrist -4.71519
lhand 11.4011 63.9424
lfingers 7.12502
lthumb 36.454 -90.1461
rfemur -22.6601 8.91356 15.9261
rtibia 39.0756
rfoot -16.5382 3.15344
rtoes -20.7777
lfemur -44.0885 19.991 -18.4326
ltibia 40.4965
lfoot -9.40451 -14.6705
ltoes -17.7722
333
root 13.2914 18.035 22.9217 173.94 -80.203 -160.925
lowerback 21.7369 -9.77959 -6.34686
upperback 4.87742 -14.7718 -3.85711
thorax -5.98267 -7.21911 3.10831
lowerneck -17.2561 14.7609 -5.35513
upperneck 18.0603 21.9932 -3.44341
head 8.26213 9.49083 2.22307
rclavicle 1.78111e-013 -3.18055e-014
rhumerus -2.19411 -29.3583 -80.9972
rradius 66.5663
rwrist -78.8423
rhand -18.0377 374.481
rfingers 7.12502
rthumb 8.23394 -15.3383
lclavicle 1.78111e-013 -3.18055e-014
lhumerus 78.0582 -67.3213 55.8308
lradius 26.3387
lwrist -4.58267
lhand 11.5326 63.4574
lfingers 7.12502
lthumb 36.5785 89.6297
rfemur -22.0398 8.75754 15.1156
rtibia 38.4177
rfoot -17.4403 1.70943
rtoes -20.1568
lfemur -43.6285 20.1009 -18.6895
ltibia 41.7748
lfoot -12.2717 -12.5926
ltoes -19.6373
334
root 13.3241 17.9807 22.9839 173.482 -80.4033 -160.457
lowerback 21.7253 -9.40626 -6.22683
upperback 4.75137 -14.2568 -3.77147
thorax -6.15908 -6.95689 3.03635
lowerneck -16.7307 14.6653 -4.98052
upperneck 18.1024 21.7763 -3.67367
head 8.25864 9.39603 2.04945
rclavicle -1.03368e-013 0
rhumerus -4.1109 -29.7324 -80.1483
rradius 67.9793
rwrist -78.6052
rhand -17.9775 374.953
rfingers 7.12502
rthumb 8.29209 -14.8644
lclavicle -1.03368e-013 0
lhumerus 79.4353 -68.2043 54.4017
lradius 26.5695
lwrist -3.905
lhand 11.5949 63.6238
lfingers 7.12502
lthumb 36.6374 89.7811
rfemur -21.6701 8.65906 15.0156
rtibia 37.64
rfoot -18.1544 1.63754
rtoes -18.3831
lfemur -43.3915 20.4516 -17.9596
ltibia 43.3801
lfoot -14.4504 -10.3381
ltoes -20.4199
335
root 13.3628 17.9062 23.0545 173.083 -80.2889 -159.921
lowerback 21.7288 -9.04045 -6.19256
upperback 4.46277 -13.7523 -3.47649
thorax -6.44513 -6.68335 3.24122
lowerneck -16.701 14.6153 -5.16811
upperneck 18.7391 21.7379 -3.38668
head 8.41382 9.34471 2.18149
rclavicle 5.88403e-014 3.18055e-015
rhumerus -5.25386 -29.9462 -79.4616
rradius 68.9351
rwrist -78.1146
rhand -18.3621 376.11
rfingers 7.12502
rthumb 7.92084 -13.7216
lclavicle 5.88403e-014 3.18055e-015
lhumerus 79.5638 -68.7938 54.3398
lradius 26.8485
lwrist -3.29279
lhand 11.5452 63.7984
lfingers 7.12502
lthumb 36.5904 89.9676
rfemur -21.5632 8.4602 14.9606
rtibia 36.9298
rfoot -18.633 1.60682
rtoes -16.001
lfemur -43.2012 20.5906 -16.8666
ltibia 45.2537
lfoot -15.8229 -8.13689
ltoes -20.2459
336
root 13.4012 17.8431 23.1381 173.773 -80.1797 -160.548
lowerback 21.3034 -8.53176 -7.65001
upperback 4.66291 -13.2376 -2.17409
thorax -5.38957 -6.48453 5.08671
lowerneck -17.0785 14.5678 -6.52119
upperneck 18.5191 22.1638 -4.16687
head 8.363 9.36081 2.17403
rclavicle -1.74931e-014 5.08889e-014
rhumerus -3.91675 -29.3424 -78.7388
rradius 69.2341
rwrist -77.625
rhand -18.7331 377.287
rfingers 7.12502
rthumb 7.56277 -12.558
lclavicle -1.74931e-014 5.08889e-014
lhumerus 79.7082 -67.6766 55.3947
lradius 27.0383
lwrist -3.48102
lhand 11.8204 63.5069
lfingers 7.12502
lthumb 36.8508 89.6098
rfemur -21.5611 7.68624 14.7778
rtibia 36.5016
rfoot -19.381 1.36963
rtoes -15.9688
lfemur -42.671 20.1766 -15.5833
ltibia 47.2232
lfoot -16.7305 -6.74558
ltoes -16.9557
337
root 13.4355 17.7987 23.233 174.094 -79.9135 -160.862
lowerback 21.2152 -8.49403 -6.91598
upperback 4.5216 -13.0571 -2.48657
thorax -5.76135 -6.3768 4.36477
lowerneck -16.6827 14.7434 -6.02357
upperneck 18.3749 22.2988 -4.50512
head 8.3421 9.44112 1.99349
rclavicle -1.08139e-013 -4.45278e-014
rhumerus -4.72537 -29.7148 -79.2528
rradius 70.0996
rwrist -77.0503
rhand -18.8792 377.904
rfingers 7.12502
rthumb 7.42175 -11.9458
lclavicle -1.08139e-013 -4.45278e-014
lhumerus 79.9046 -68.1673 54.3305
lradius 27.2683
lwrist -3.42907
lhand 11.6811 63.5866
lfingers 7.12502
lthumb 36.719 89.7232
rfemur -21.6128 6.24655 14.7968
rtibia 36.303
rfoot -20.5742 1.37883
rtoes -18.1855
lfemur -41.6854 19.3462 -13.7732
ltibia 49.1314
lfoot -17.1611 -6.82744
ltoes -2.23459
338
root 13.4635 17.7177 23.3323 175.861 -79.3796 -162.786
lowerback 21.0165 -7.96795 -7.72474
upperback 4.65998 -12.4857 -1.95931
thorax -5.26963 -6.13102 5.15024
lowerneck -16.7074 14.8315 -6.40217
upperneck 18.0377 22.6239 -5.24693
head 8.29109 9.50679 1.84176
rclavicle -5.24792e-014 7.95139e-014
rhumerus -4.34722 -29.734 -79.0352
rradius 70.8149
rwrist -76.6438
rhand -18.6949 378.374
rfingers 7.12502
rthumb 7.59968 -11.4696
lclavicle -5.24792e-014 7.95139e-014
lhumerus 80.6056 -67.7746 54.0912
lradius 27.3367
lwrist -3.40974
lhand 11.028 63.5404
lfingers 7.12502
lthumb 36.1008 89.8321
rfemur -21.6743 4.84962 14.5064
rtibia 36.3233
rfoot -21.7615 1.54565
rtoes -18.5575
lfemur -40.9938 19.9787 -13.4069
ltibia 50.922
lfoot -18.0791 -3.51324
ltoes -15.4484
339
root 13.4863 17.6615 23.4271 177.652 -78.6271 -164.857
lowerback 21.1061 -7.39189 -8.76304
upperback 4.63685 -11.9288 -1.38863
thorax -5.06876 -5.86778 6.18481
lowerneck -16.51 15.0245 -6.91442
upperneck 17.8625 23.0295 -5.63432
head 8.19471 9.6387 1.80383
rclavicle 9.38264e-014 6.67916e-014
rhumerus -4.12116 -29.4186 -78.5965
rradius 71.3391
rwrist -76.3998
rhand -18.7401 378.801
rfingers 7.12502
rthumb 7.55602 -11.0438
lclavicle 9.38264e-014 6.67916e-014
lhumerus 80.3719 -67.3745 54.6313
lradius 27.5387
lwrist -3.15584
lhand 10.4567 63.1726
lfingers 7.12502
lthumb 35.5594 89.5962
rfemur -21.7047 4.31668 14.04
rtibia 36.4663
rfoot -22.4249 1.66716
rtoes -17.1412
lfemur -39.7395 20.2837 -12.5577
ltibia 52.6909
lfoot -18.3159 -1.73822
ltoes -17.4956
340
root 13.5152 17.6295 23.528 176.3 -77.7487 -163.665
lowerback 21.142 -7.07385 -8.58238
upperback 4.67837 -11.4623 -1.12083
thorax -5.08985 -5.64603 6.28674
lowerneck -16.1899 15.33 -7.16487
upperneck 17.5354 23.4638 -5.86001
head 8.03069 9.846 1.76612
rclavicle -8.11041e-014 -3.49861e-014
rhumerus -3.83484 -29.3312 -78.8805
rradius 71.5641
rwrist -75.9575
rhand -19.033 379.22
rfingers 7.12502
rthumb 7.2733 -10.6348
lclavicle -8.11041e-014 -3.49861e-014
lhumerus 81.3809 -67.2097 53.1216
lradius 27.8607
lwrist -2.35917
lhand 9.98617 62.7298
lfingers 7.12502
lthumb 35.1132 89.2594
rfemur -22.0423 4.43709 14.1257
rtibia 36.8923
rfoot -22.5539 2.04434
rtoes -16.5593
lfemur -38.3871 20.4689 -10.7491
ltibia 54.5026
lfoot -18.1743 -1.26489
ltoes -14.8043
